<?xml version="1.0" standalone="no"?>
<!DOCTYPE svg PUBLIC "-//W3C//DTD SVG 20010904//EN"
 "http://www.w3.org/TR/2001/REC-SVG-20010904/DTD/svg10.dtd">
<svg version="1.0" xmlns="http://www.w3.org/2000/svg"
 width="512.000000pt" height="512.000000pt" viewBox="0 0 512.000000 512.000000"
 preserveAspectRatio="xMidYMid meet">

<g transform="translate(0.000000,512.000000) scale(0.100000,-0.100000)"
fill="#000000" stroke="none">
<path d="M2435 4469 c-500 -73 -904 -454 -1005 -949 -31 -149 -25 -389 13
-533 52 -196 150 -373 288 -521 459 -492 1241 -504 1717 -27 472 473 467 1235
-12 1698 -184 180 -398 287 -649 328 -99 16 -256 18 -352 4z m282 -110 c473
-53 859 -407 948 -870 20 -109 21 -300 0 -407 -43 -223 -147 -415 -313 -574
-252 -242 -573 -345 -912 -293 -429 66 -773 376 -887 802 -24 88 -27 116 -27
268 0 152 3 180 27 267 126 471 540 800 1030 817 21 0 81 -4 134 -10z"/>
<path d="M2520 4288 c-18 -13 -43 -36 -54 -51 -21 -28 -21 -38 -24 -608 l-2
-579 -158 0 c-231 0 -257 -18 -271 -186 -7 -80 -16 -119 -50 -203 -43 -109
-49 -145 -28 -172 29 -38 39 -39 677 -39 l621 0 24 25 c35 34 32 68 -20 204
-38 100 -45 129 -45 190 0 84 -16 129 -56 156 -25 18 -50 20 -201 23 l-173 4
0 570 c0 636 2 615 -69 664 -48 32 -124 33 -171 2z m114 -104 c14 -14 16 -80
16 -575 l0 -559 -50 0 -50 0 0 553 c0 484 2 555 16 575 18 26 46 28 68 6z
m441 -1299 l0 -40 -472 -3 -473 -2 0 45 0 45 473 -2 472 -3 0 -40z m51 -238
l31 -82 -550 -3 c-303 -1 -552 0 -555 2 -3 4 8 38 47 139 l11 27 492 0 493 0
31 -83z"/>
<path d="M738 4193 c-8 -10 -38 -67 -67 -128 l-53 -110 -121 -60 c-121 -60
-122 -60 -122 -95 0 -35 0 -35 123 -95 l123 -60 59 -121 c85 -179 111 -178
197 2 l54 114 119 60 c183 92 183 117 1 202 l-116 54 -58 120 c-32 65 -64 122
-70 126 -21 13 -53 9 -69 -9z m75 -250 c30 -64 36 -70 100 -103 37 -19 67 -37
67 -40 0 -3 -30 -21 -68 -40 -62 -32 -69 -40 -97 -97 -16 -34 -33 -65 -36 -68
-4 -3 -21 25 -39 64 -32 68 -34 71 -101 102 -38 18 -69 35 -69 38 0 3 30 22
68 41 62 33 69 40 101 103 19 37 36 67 38 67 2 0 18 -30 36 -67z"/>
<path d="M472 2808 c-9 -9 -12 -254 -12 -1039 l0 -1028 -191 -3 c-175 -3 -192
-5 -205 -22 -21 -29 -17 -63 8 -80 20 -14 273 -16 2495 -16 2460 0 2473 0
2493 20 21 21 25 47 12 66 -19 28 -56 34 -226 34 l-176 0 0 410 c0 450 0 453
-59 503 -44 37 -52 38 -247 40 l-169 2 -5 123 c-4 94 -8 125 -20 132 -9 6
-405 10 -1017 10 l-1002 0 -15 -22 c-12 -17 -16 -49 -16 -135 l0 -113 -327 2
-328 3 -5 160 c-5 148 -7 164 -32 210 -32 60 -97 124 -158 156 -41 22 -61 24
-225 29 l-180 5 -5 220 c-3 141 -9 227 -17 240 -18 32 -76 83 -106 94 -40 15
-250 14 -265 -1z m249 -127 l29 -29 0 -956 0 -956 -90 0 -90 0 0 985 0 985 61
0 c54 0 64 -3 90 -29z m474 -552 c53 -15 129 -91 144 -144 6 -22 11 -97 11
-168 l0 -127 -242 2 -243 3 -3 223 -2 222 147 0 c82 0 166 -5 188 -11z m2885
-359 l0 -80 -920 0 -920 0 0 80 0 80 920 0 920 0 0 -80z m260 -280 l0 -90
-1737 2 -1738 3 -3 88 -3 87 1741 0 1740 0 0 -90z m204 68 c14 -19 16 -76 16
-420 l0 -398 -55 0 -54 0 0 420 -1 420 40 0 c29 0 43 -6 54 -22z m-204 -423
l0 -155 -1740 0 -1740 0 0 148 c0 82 3 152 7 155 3 4 786 7 1740 7 l1733 0 0
-155z m0 -335 l0 -60 -1740 0 -1740 0 0 60 0 60 1740 0 1740 0 0 -60z"/>
<path d="M4156 2788 c-8 -13 -36 -69 -62 -125 l-47 -102 -123 -60 c-102 -49
-124 -64 -130 -86 -9 -38 12 -56 139 -115 l112 -52 55 -115 c87 -185 114 -185
202 -1 l55 113 109 53 c123 61 144 76 144 107 0 30 -11 38 -141 100 l-112 54
-61 123 c-57 116 -63 123 -93 126 -24 2 -35 -2 -47 -20z m84 -246 c33 -63 39
-69 107 -103 l72 -35 -75 -37 c-74 -37 -75 -38 -108 -110 l-32 -72 -40 75
c-38 72 -42 76 -109 108 l-70 34 76 39 c75 37 77 39 105 103 16 37 31 66 34
66 3 0 21 -30 40 -68z"/>
</g>
</svg>
