<?xml version="1.0" standalone="no"?>
<!DOCTYPE svg PUBLIC "-//W3C//DTD SVG 20010904//EN"
 "http://www.w3.org/TR/2001/REC-SVG-20010904/DTD/svg10.dtd">
<svg version="1.0" xmlns="http://www.w3.org/2000/svg"
 width="512.000000pt" height="512.000000pt" viewBox="0 0 512.000000 512.000000"
 preserveAspectRatio="xMidYMid meet">

<g transform="translate(0.000000,512.000000) scale(0.100000,-0.100000)"
fill="#000000" stroke="none">
<path d="M2506 4616 c-553 -238 -685 -299 -708 -325 l-28 -31 0 -581 c0 -390
-3 -578 -10 -574 -19 12 -49 81 -144 338 -107 288 -113 301 -153 339 -64 61
-136 63 -278 9 -55 -21 -101 -38 -102 -37 -1 0 -52 136 -113 301 -61 165 -122
319 -136 343 -30 51 -103 106 -161 123 -100 27 -232 -8 -294 -79 -56 -64 -73
-110 -74 -197 0 -78 3 -88 116 -387 l116 -307 -71 -27 c-166 -62 -186 -74
-217 -136 -37 -72 -28 -112 88 -420 l107 -283 1 -95 c0 -95 0 -95 -58 -220
-31 -69 -57 -135 -57 -148 0 -35 43 -72 82 -71 18 0 139 40 268 88 l235 88 18
-48 c25 -67 105 -152 175 -186 50 -24 69 -28 147 -28 76 0 99 4 146 26 68 32
129 91 161 154 l24 46 92 2 92 2 0 -212 0 -213 -618 -2 -619 -3 -37 -29 c-79
-60 -76 -24 -76 -813 l0 -701 -111 -4 c-101 -3 -112 -5 -129 -26 -18 -22 -18
-43 3 -70 14 -17 4737 -18 4755 0 20 20 14 65 -10 82 -17 12 -48 16 -125 16
l-103 0 0 703 c0 789 3 753 -76 813 -34 26 -46 29 -131 32 l-93 4 0 1097 0
1097 -22 44 c-17 33 -35 51 -68 68 -44 22 -47 22 -502 22 l-458 0 0 310 c0
341 -2 355 -60 385 -16 8 -46 15 -67 14 -27 0 -239 -87 -717 -293z m734 -115
l0 -298 -69 -5 c-80 -6 -123 -28 -154 -78 l-22 -35 -3 -1107 -2 -1108 -555 0
-555 0 0 150 0 150 383 0 c230 0 397 4 419 10 20 6 48 24 62 41 26 30 26 33
26 190 0 123 -3 167 -15 189 -31 59 -35 60 -475 60 -458 0 -468 2 -294 66 113
41 134 58 134 111 l0 33 291 0 291 0 35 35 34 34 -3 175 -3 176 -28 27 -27 28
-415 3 -415 3 0 104 0 105 410 0 410 0 32 29 33 29 0 182 0 182 -33 29 -32 29
-410 0 -410 0 0 93 0 93 663 286 c364 158 670 287 680 287 16 1 17 -20 17
-298z m-2572 -95 c61 -32 78 -65 196 -380 64 -170 115 -310 113 -311 -17 -14
-332 -123 -337 -118 -19 22 -230 614 -230 645 0 70 42 136 105 164 40 18 119
18 153 0z m3604 -333 c17 -15 18 -63 18 -1110 l0 -1093 -595 0 -595 0 0 1090
c0 1077 0 1090 20 1110 20 20 33 20 577 20 504 0 558 -2 575 -17z m-1612 -273
l0 -130 -390 0 -390 0 0 130 0 130 390 0 390 0 0 -130z m-1271 -97 c18 -16 87
-181 78 -189 -6 -6 -1051 -394 -1062 -394 -14 0 -65 146 -65 186 0 19 8 38 23
51 12 11 184 80 382 153 198 73 405 150 460 171 112 42 153 47 184 22z m181
-448 c28 -77 62 -158 75 -181 40 -68 137 -150 233 -195 73 -35 84 -43 67 -50
-11 -5 -96 -38 -190 -73 -122 -46 -172 -60 -177 -51 -4 6 -48 122 -98 258 -97
259 -101 266 -156 253 -46 -12 -41 -41 59 -308 l95 -253 -82 -31 c-44 -17 -91
-34 -104 -38 -25 -8 -23 -12 -77 132 -32 86 -58 106 -100 78 -33 -22 -32 -38
10 -148 19 -51 35 -98 35 -103 0 -9 -146 -69 -189 -77 -10 -2 -33 48 -77 161
-34 90 -68 168 -76 172 -25 16 -57 9 -74 -16 -15 -23 -13 -31 46 -191 34 -91
59 -169 55 -172 -8 -9 -368 -142 -372 -138 -2 2 11 33 28 69 41 90 59 159 59
237 0 77 -12 122 -74 289 -25 69 -43 128 -39 132 16 14 1058 397 1064 391 4
-4 30 -70 59 -147z m1090 -145 l0 -130 -371 0 c-236 0 -377 4 -390 10 -17 10
-19 22 -19 130 l0 120 390 0 390 0 0 -130z m-890 -574 c0 -82 -3 -106 -16
-117 -25 -21 -125 -24 -162 -5 -61 32 -93 12 -106 -65 -8 -47 -55 -112 -105
-145 -81 -53 -208 -41 -286 27 -33 30 -84 131 -69 137 198 76 723 271 732 271
9 1 12 -26 12 -103z m888 -118 l-3 -133 -387 -3 -388 -2 0 135 0 135 390 0
391 0 -3 -132z m1898 -666 c33 -22 34 -49 34 -741 l0 -691 -610 0 -610 0 0
470 0 470 68 0 c82 0 116 15 120 53 7 61 69 57 -998 57 -1067 0 -1005 4 -998
-57 4 -38 38 -53 121 -53 l67 0 0 -470 0 -470 -610 0 -610 0 0 691 c0 692 1
719 34 741 14 10 3978 10 3992 0z m-2046 -962 l0 -470 -325 0 -325 0 0 470 0
470 325 0 325 0 0 -470z m750 0 l0 -470 -325 0 -325 0 0 470 0 470 325 0 325
0 0 -470z"/>
<path d="M3303 3849 c-55 -16 -63 -38 -63 -182 l0 -129 29 -29 29 -29 396 0
396 0 32 29 33 29 0 124 c0 144 -10 170 -72 187 -47 14 -735 13 -780 0z m745
-181 l3 -78 -351 0 -350 0 0 80 0 80 348 -2 347 -3 3 -77z"/>
<path d="M3266 3364 c-25 -26 -26 -29 -26 -159 l0 -133 31 -26 31 -26 394 0
394 0 32 28 c30 27 32 33 36 115 6 114 -4 174 -33 203 l-24 24 -404 0 -404 0
-27 -26z m784 -159 l0 -75 -350 0 -350 0 0 75 0 75 350 0 350 0 0 -75z"/>
<path d="M3266 2904 c-25 -26 -26 -29 -26 -159 l0 -133 31 -26 31 -26 397 0
398 0 25 25 c14 14 28 39 32 56 9 49 7 180 -4 221 -20 70 -9 68 -456 68 l-401
0 -27 -26z m784 -159 l0 -75 -350 0 -350 0 0 75 0 75 350 0 350 0 0 -75z"/>
<path d="M3271 2444 l-31 -26 0 -133 c0 -130 1 -133 26 -159 l27 -26 401 0
c447 0 436 -2 456 68 11 41 13 172 4 221 -4 17 -18 42 -32 56 l-25 25 -398 0
-397 0 -31 -26z m779 -159 l0 -75 -350 0 -350 0 0 75 0 75 350 0 350 0 0 -75z"/>
<path d="M877 1109 c-39 -23 -47 -69 -47 -268 0 -104 4 -201 10 -215 20 -54
47 -61 260 -64 312 -5 310 -7 310 273 0 99 -5 197 -10 217 -19 66 -27 68 -280
68 -141 0 -232 -5 -243 -11z m421 -266 l-3 -168 -175 0 -175 0 -3 168 -2 167
180 0 180 0 -2 -167z"/>
<path d="M3757 1109 c-39 -23 -47 -69 -47 -266 0 -285 -4 -282 290 -282 294 0
290 -3 290 282 0 200 -8 245 -48 266 -28 15 -460 14 -485 0z m421 -266 l-3
-168 -175 0 -175 0 -3 168 -2 167 180 0 180 0 -2 -167z"/>
<path d="M1346 4420 c-92 -29 -158 -121 -158 -219 0 -174 175 -282 331 -205
208 104 145 414 -86 430 -32 2 -71 -1 -87 -6z m149 -130 c77 -73 37 -196 -67
-207 -34 -4 -50 0 -78 19 -103 70 -45 229 78 215 26 -3 53 -14 67 -27z"/>
</g>
</svg>
