<?xml version="1.0" standalone="no"?>
<!DOCTYPE svg PUBLIC "-//W3C//DTD SVG 20010904//EN"
 "http://www.w3.org/TR/2001/REC-SVG-20010904/DTD/svg10.dtd">
<svg version="1.0" xmlns="http://www.w3.org/2000/svg"
 width="512.000000pt" height="512.000000pt" viewBox="0 0 512.000000 512.000000"
 preserveAspectRatio="xMidYMid meet">
<metadata>
Created by potrace 1.16, written by Peter Selinger 2001-2019
</metadata>
<g transform="translate(0.000000,512.000000) scale(0.100000,-0.100000)"
fill="#000000" stroke="none">
<path d="M1005 5106 c-475 -92 -842 -432 -972 -904 -25 -91 -27 -110 -27 -307
0 -195 2 -217 26 -305 119 -436 456 -775 881 -884 51 -13 118 -27 150 -31 l57
-6 0 -109 0 -109 -57 -6 c-32 -4 -99 -18 -150 -31 -425 -109 -762 -448 -881
-884 -24 -88 -26 -110 -26 -305 0 -197 2 -216 27 -307 122 -440 445 -763 886
-885 90 -25 109 -27 306 -27 195 0 217 2 305 26 438 119 774 454 884 881 13
51 27 118 31 150 l6 57 109 0 109 0 6 -58 c4 -31 18 -98 31 -149 109 -425 444
-759 882 -880 91 -25 110 -27 307 -27 197 0 216 2 307 27 439 121 764 446 885
885 25 91 27 110 27 307 0 197 -2 216 -27 307 -121 440 -445 764 -885 885 -91
25 -110 27 -307 27 -195 0 -217 -2 -305 -26 -436 -119 -775 -456 -884 -881
-13 -51 -27 -118 -31 -149 l-6 -58 -109 0 -108 0 -11 80 c-26 177 -91 343
-196 500 l-72 108 466 466 466 465 45 -34 c121 -94 297 -177 458 -218 75 -19
114 -22 287 -22 178 0 210 3 290 24 458 120 793 454 906 904 29 115 37 377 16
502 -37 208 -78 285 -155 285 -48 0 -97 -36 -105 -77 -3 -14 5 -61 18 -103 13
-43 29 -111 35 -153 18 -107 8 -320 -19 -422 -21 -80 -127 -306 -146 -312 -5
-1 -28 25 -50 58 -61 93 -216 236 -315 291 -47 27 -89 50 -95 51 -5 2 8 24 31
49 154 167 186 420 81 630 -37 76 -149 191 -224 231 -68 36 -191 67 -268 67
-77 0 -200 -31 -268 -67 -75 -40 -187 -155 -224 -231 -105 -209 -72 -464 80
-629 22 -24 38 -45 36 -46 -2 -2 -35 -21 -74 -41 -135 -73 -256 -181 -337
-302 -24 -35 -47 -62 -53 -61 -18 5 -125 231 -147 312 -18 68 -22 106 -22 260
0 209 13 271 89 432 56 118 112 197 206 290 201 198 434 294 713 294 137 0
227 -16 361 -63 100 -35 130 -34 171 7 28 28 33 97 10 131 -20 28 -116 70
-234 101 -89 25 -113 27 -302 27 -180 1 -216 -2 -292 -21 -456 -116 -795 -455
-911 -911 -19 -75 -22 -114 -22 -287 0 -173 3 -212 22 -287 41 -161 124 -337
218 -458 l34 -45 -465 -466 -466 -466 -108 72 c-157 105 -323 170 -500 196
l-80 11 0 108 0 109 58 6 c31 4 98 18 149 31 424 109 763 448 881 884 24 88
26 110 26 305 0 197 -2 216 -27 307 -122 440 -449 767 -885 884 -84 23 -121
27 -277 30 -123 2 -202 -1 -250 -10z m478 -226 c160 -42 310 -126 436 -245
100 -95 163 -181 221 -300 78 -160 95 -238 95 -440 0 -146 -3 -182 -23 -255
-29 -108 -141 -338 -155 -319 -2 2 -24 33 -49 69 -69 98 -209 227 -309 282
-46 27 -88 50 -94 51 -5 2 8 24 31 49 154 167 186 420 81 630 -37 76 -149 191
-224 231 -68 36 -191 67 -268 67 -77 0 -200 -31 -268 -67 -75 -40 -187 -155
-224 -231 -105 -209 -72 -464 80 -629 22 -24 38 -45 36 -46 -2 -2 -35 -21 -74
-41 -133 -72 -246 -172 -333 -296 -25 -36 -47 -67 -49 -69 -14 -19 -126 211
-155 319 -20 73 -23 109 -23 255 0 202 17 280 95 440 187 385 575 607 1003
573 48 -4 124 -16 170 -28z m-109 -429 c75 -37 128 -91 165 -170 21 -46 26
-70 26 -136 0 -71 -4 -89 -33 -147 -38 -77 -92 -130 -171 -167 -80 -37 -192
-37 -272 0 -79 37 -133 90 -171 167 -61 124 -41 270 52 375 100 114 266 146
404 78z m2670 0 c75 -37 128 -91 165 -170 21 -46 26 -70 26 -136 0 -71 -4 -89
-33 -147 -38 -77 -92 -130 -171 -167 -80 -37 -192 -37 -272 0 -79 37 -133 90
-171 167 -61 124 -41 270 52 375 100 114 266 146 404 78z m-2676 -877 c117
-23 262 -97 350 -179 71 -66 142 -156 176 -222 l16 -32 -62 -51 c-81 -64 -260
-153 -363 -180 -285 -75 -594 -20 -839 150 -114 79 -112 75 -68 151 20 35 77
105 127 155 80 81 103 98 195 142 163 79 305 99 468 66z m2670 0 c117 -23 262
-97 350 -179 71 -66 142 -156 176 -222 l16 -33 -57 -45 c-69 -55 -159 -107
-254 -147 -222 -93 -525 -93 -751 1 -93 39 -211 109 -266 158 l-43 38 38 65
c21 36 79 106 128 156 80 81 103 98 195 142 163 79 305 99 468 66z m-2555
-1364 c160 -42 310 -126 436 -245 100 -95 163 -181 221 -300 78 -160 95 -238
95 -440 0 -202 -17 -280 -95 -440 -186 -384 -576 -607 -1003 -573 -226 18
-436 112 -606 273 -100 95 -163 181 -221 300 -78 160 -95 238 -95 440 0 202
17 280 95 440 187 385 575 607 1003 573 48 -4 124 -16 170 -28z m2670 0 c160
-42 310 -126 436 -245 100 -95 163 -181 221 -300 78 -160 95 -238 95 -440 0
-146 -3 -182 -23 -255 -29 -108 -141 -338 -155 -319 -2 2 -24 33 -49 69 -69
98 -209 227 -309 282 -46 27 -88 50 -94 51 -5 2 8 24 31 49 154 167 186 420
81 630 -37 76 -149 191 -224 231 -68 36 -191 67 -268 67 -77 0 -200 -31 -268
-67 -75 -40 -187 -155 -224 -231 -105 -209 -72 -464 80 -629 22 -24 38 -45 36
-46 -2 -2 -35 -21 -74 -41 -133 -72 -246 -172 -333 -296 -25 -36 -47 -67 -49
-69 -14 -19 -126 211 -155 319 -20 73 -23 109 -23 255 0 202 17 280 95 440
187 385 575 607 1003 573 48 -4 124 -16 170 -28z m-109 -429 c75 -37 128 -91
165 -170 21 -46 26 -70 26 -136 0 -71 -4 -89 -33 -147 -38 -77 -92 -130 -171
-167 -80 -37 -192 -37 -272 0 -79 37 -133 90 -171 167 -61 124 -41 270 52 375
100 114 266 146 404 78z m-6 -877 c47 -9 118 -35 182 -66 92 -44 115 -61 195
-142 50 -50 107 -120 127 -155 44 -76 46 -72 -68 -151 -352 -244 -806 -244
-1158 0 -114 79 -112 75 -68 151 20 35 77 105 127 155 80 81 103 98 195 142
163 79 305 99 468 66z"/>
<path d="M1653 1770 c-13 -5 -127 -166 -284 -402 -144 -216 -265 -397 -269
-401 -4 -5 -69 71 -145 168 -85 110 -147 180 -163 186 -72 28 -142 -19 -142
-96 0 -42 9 -56 193 -292 207 -266 218 -277 289 -257 29 8 67 61 351 484 291
435 317 478 317 517 0 57 -31 93 -85 98 -22 3 -50 1 -62 -5z"/>
<path d="M4639 4741 c-41 -41 -41 -98 0 -143 57 -64 161 -35 177 50 19 99
-105 164 -177 93z"/>
</g>
</svg>
